<svg width="32" height="32" viewBox="0 0 32 32" fill="none" xmlns="http://www.w3.org/2000/svg">
<path d="M9.56686 29.3C8.9002 29.3 8.33353 29.0667 7.86686 28.6C7.40019 28.1334 7.16686 27.5667 7.16686 26.9C7.16686 26.2334 7.40019 25.6667 7.86686 25.2C8.33353 24.7334 8.9002 24.5 9.56686 24.5C10.2335 24.5 10.8002 24.7334 11.2669 25.2C11.7335 25.6667 11.9669 26.2334 11.9669 26.9C11.9669 27.5667 11.7335 28.1334 11.2669 28.6C10.8002 29.0667 10.2335 29.3 9.56686 29.3ZM22.9002 29.3C22.2335 29.3 21.6669 29.0667 21.2002 28.6C20.7335 28.1334 20.5002 27.5667 20.5002 26.9C20.5002 26.2334 20.7335 25.6667 21.2002 25.2C21.6669 24.7334 22.2335 24.5 22.9002 24.5C23.5669 24.5 24.1335 24.7334 24.6002 25.2C25.0669 25.6667 25.3002 26.2334 25.3002 26.9C25.3002 27.5667 25.0669 28.1334 24.6002 28.6C24.1335 29.0667 23.5669 29.3 22.9002 29.3ZM7.83353 7.30002L11.5002 14.9H21.1002L25.2669 7.30002H7.83353ZM6.83353 5.30002H26.4669C26.978 5.30002 27.3669 5.53335 27.6335 6.00002C27.9002 6.46669 27.9002 6.93335 27.6335 7.40002L23.1335 15.5C22.8891 15.9222 22.5724 16.2611 22.1835 16.5167C21.7946 16.7722 21.3669 16.9 20.9002 16.9H10.8002L8.93353 20.3667H25.3002V22.3667H9.23353C8.3002 22.3667 7.62797 22.0556 7.21686 21.4334C6.80575 20.8111 6.81131 20.1111 7.23353 19.3334L9.36686 15.4L4.3002 4.66669H1.7002V2.66669H5.60019L6.83353 5.30002Z" fill="white"/>
</svg>
