<svg width="28" height="29" viewBox="0 0 28 29" fill="none" xmlns="http://www.w3.org/2000/svg">
<path d="M4.08325 24.1666C3.61659 24.1666 3.20825 23.9853 2.85825 23.6228C2.50825 23.2603 2.33325 22.8374 2.33325 22.3541V6.64575C2.33325 6.16242 2.50825 5.7395 2.85825 5.377C3.20825 5.0145 3.61659 4.83325 4.08325 4.83325H23.9166C24.3833 4.83325 24.7916 5.0145 25.1416 5.377C25.4916 5.7395 25.6666 6.16242 25.6666 6.64575V22.3541C25.6666 22.8374 25.4916 23.2603 25.1416 23.6228C24.7916 23.9853 24.3833 24.1666 23.9166 24.1666H4.08325ZM13.9999 15.0437L4.08325 8.30721V22.3541H23.9166V8.30721L13.9999 15.0437ZM13.9999 13.2312L23.7999 6.64575H4.22909L13.9999 13.2312ZM4.08325 8.30721V6.64575V22.3541V8.30721Z" fill="white"/>
</svg>
