<svg width="32" height="32" viewBox="0 0 32 32" fill="none" xmlns="http://www.w3.org/2000/svg">
<path d="M18.3429 9.60276L16.9613 9.6001C15.4092 9.6001 14.4061 10.8365 14.4061 12.7502V14.2026H13.017C12.897 14.2026 12.7998 14.3195 12.7998 14.4637V16.5681C12.7998 16.7123 12.8971 16.8291 13.017 16.8291H14.4061V22.1391C14.4061 22.2833 14.5033 22.4001 14.6234 22.4001H16.4358C16.5558 22.4001 16.653 22.2832 16.653 22.1391V16.8291H18.2772C18.3972 16.8291 18.4944 16.7123 18.4944 16.5681L18.4951 14.4637C18.4951 14.3945 18.4721 14.3282 18.4315 14.2792C18.3908 14.2302 18.3354 14.2026 18.2777 14.2026H16.653V12.9714C16.653 12.3796 16.7704 12.0792 17.412 12.0792L18.3427 12.0788C18.4626 12.0788 18.5598 11.9619 18.5598 11.8178V9.86376C18.5598 9.71981 18.4627 9.60303 18.3429 9.60276Z" fill="white"/>
<circle cx="16" cy="16" r="15.5" stroke="white"/>
</svg>
