<svg width="28" height="28" viewBox="0 0 28 28" fill="none" xmlns="http://www.w3.org/2000/svg">
<path d="M23.1875 24.5C20.8153 24.5 18.4576 23.9167 16.1146 22.75C13.7715 21.5833 11.6667 20.0667 9.8 18.2C7.93333 16.3333 6.41667 14.2285 5.25 11.8854C4.08333 9.54236 3.5 7.18472 3.5 4.8125C3.5 4.44306 3.62639 4.13194 3.87917 3.87917C4.13194 3.62639 4.44306 3.5 4.8125 3.5H8.89583C9.16806 3.5 9.40625 3.59236 9.61042 3.77708C9.81458 3.96181 9.94583 4.20972 10.0042 4.52083L10.7917 8.19583C10.8306 8.46806 10.8257 8.71597 10.7771 8.93958C10.7285 9.16319 10.6264 9.35278 10.4708 9.50833L7.55417 12.4542C8.64306 14.2625 9.86319 15.8375 11.2146 17.1792C12.566 18.5208 14.0972 19.6583 15.8083 20.5917L18.5792 17.7333C18.7736 17.5194 18.9972 17.3687 19.25 17.2812C19.5028 17.1937 19.7556 17.1792 20.0083 17.2375L23.4792 17.9958C23.7708 18.0542 24.0139 18.2 24.2083 18.4333C24.4028 18.6667 24.5 18.9389 24.5 19.25V23.1875C24.5 23.5569 24.3736 23.8681 24.1208 24.1208C23.8681 24.3736 23.5569 24.5 23.1875 24.5ZM6.67917 10.85L9.04167 8.45833L8.37083 5.25H5.25C5.25 6.00833 5.36667 6.83958 5.6 7.74375C5.83333 8.64792 6.19306 9.68333 6.67917 10.85ZM17.4417 21.4375C18.2389 21.8069 19.1042 22.1083 20.0375 22.3417C20.9708 22.575 21.875 22.7111 22.75 22.75V19.6292L19.7458 19.0167L17.4417 21.4375Z" fill="white"/>
</svg>
