<svg width="28" height="28" viewBox="0 0 28 28" fill="none" xmlns="http://www.w3.org/2000/svg">
<path d="M24.4999 12.8625V22.75C24.4999 23.2167 24.3249 23.625 23.9749 23.975C23.6249 24.325 23.2166 24.5 22.7499 24.5H5.22073C4.75406 24.5 4.34573 24.325 3.99573 23.975C3.64573 23.625 3.47073 23.2167 3.47073 22.75V12.8625C2.92628 12.3958 2.56656 11.8222 2.39156 11.1417C2.21656 10.4611 2.23601 9.78056 2.4499 9.1L3.70406 5.1625C3.85962 4.6375 4.13184 4.22917 4.52073 3.9375C4.90962 3.64583 5.35684 3.5 5.8624 3.5H21.9916C22.536 3.5 23.0124 3.65069 23.4207 3.95208C23.8291 4.25347 24.111 4.65694 24.2666 5.1625L25.5499 9.1C25.7638 9.78056 25.7784 10.4611 25.5936 11.1417C25.4089 11.8222 25.0443 12.3958 24.4999 12.8625ZM16.6249 11.9583C17.1888 11.9583 17.6652 11.7736 18.0541 11.4042C18.443 11.0347 18.5985 10.5875 18.5207 10.0625L17.7916 5.25H14.8749V10.0625C14.8749 10.5681 15.0402 11.0104 15.3707 11.3896C15.7013 11.7687 16.1193 11.9583 16.6249 11.9583ZM11.1707 11.9583C11.7152 11.9583 12.177 11.7736 12.5561 11.4042C12.9353 11.0347 13.1249 10.5875 13.1249 10.0625V5.25H10.2082L9.47906 10.0625C9.40128 10.5681 9.5374 11.0104 9.8874 11.3896C10.2374 11.7687 10.6652 11.9583 11.1707 11.9583ZM5.8624 11.9583C6.32906 11.9583 6.73253 11.7979 7.07281 11.4771C7.41309 11.1562 7.6124 10.7625 7.67073 10.2958L8.42906 5.25H5.5124L4.17073 9.50833C3.97628 10.1111 4.05406 10.6701 4.40406 11.1854C4.75406 11.7007 5.24017 11.9583 5.8624 11.9583ZM22.1082 11.9583C22.7305 11.9583 23.2214 11.7056 23.5811 11.2C23.9409 10.6944 24.0235 10.1306 23.8291 9.50833L22.4874 5.25H19.5707L20.3291 10.2958C20.3874 10.7625 20.5867 11.1562 20.927 11.4771C21.2673 11.7979 21.661 11.9583 22.1082 11.9583ZM5.22073 22.75H22.7499V13.6792C22.7693 13.6986 22.7061 13.7083 22.5603 13.7083H22.1082C21.6221 13.7083 21.1603 13.6062 20.7228 13.4021C20.2853 13.1979 19.8527 12.8819 19.4249 12.4542C19.1138 12.8431 18.7249 13.1493 18.2582 13.3729C17.7916 13.5965 17.2763 13.7083 16.7124 13.7083C16.1291 13.7083 15.6284 13.6257 15.2103 13.4604C14.7923 13.2951 14.3888 13.0181 13.9999 12.6292C13.7082 12.9792 13.3388 13.2465 12.8916 13.4312C12.4443 13.616 11.9388 13.7083 11.3749 13.7083C10.7721 13.7083 10.2374 13.6014 9.77073 13.3875C9.30406 13.1736 8.90545 12.8625 8.5749 12.4542C8.10823 12.8625 7.65128 13.1736 7.20406 13.3875C6.75684 13.6014 6.30962 13.7083 5.8624 13.7083H5.46865C5.34226 13.7083 5.25962 13.6986 5.22073 13.6792V22.75Z" fill="white"/>
</svg>
